PathFileType	4	(x/y/z)	S02_PSF_T01
DataRate	CameraRate	NumFrames	NumMarkers	Units	OrigDataRate	OrigDataStartFrame	OrigNumFrames
240	240	6	51	mm	240	249	398
Frame#	Time	Sternum			R.Acromium			L.Acromium			Top.Head			R.ASIS			L.ASIS			R.PSIS			L.PSIS			R.Great.Tro			L.Great.Tro			R.Iliac.Crest			L.Iliac.Crest			V.Sacral			R.Thigh.Upper.Post			R.Thigh.Lower.Ant			R.Thigh.Lower.Post			R.Thigh.Upper.Ant			R.Knee.Lat			R.Knee.Med			R.Shank.Upper.Post			R.Shank.Lower.Ant			R.Shank.Lower.Post			R.Shank.Upper.Ant			R.Ankle.Lat			R.Ankle.Med			R.Heel.Upper			R.Heel.Med			R.Heel.Lat			R.Toe.Lat			R.Toe.Med			R.Toe.Tip			L.Thigh.Upper.Post			L.Thigh.Lower.Ant			L.Thigh.Lower.Post			L.Thigh.Upper.Ant			L.Knee.Lat			L.Knee.Med			L.Shank.Upper.Post			L.Shank.Lower.Ant			L.Shank.Lower.Post			L.Shank.Upper.Ant			L.Ankle.Lat			L.Ankle.Med			L.Heel.Upper			L.Heel.Med			L.Heel.Lat			L.Toe.Lat			L.Toe.Med			L.Toe.Tip			Cervical.Spine			Back			
		X1	Y1	Z1	X2	Y2	Z2	X3	Y3	Z3	X4	Y4	Z4	X5	Y5	Z5	X6	Y6	Z6	X7	Y7	Z7	X8	Y8	Z8	X9	Y9	Z9	X10	Y10	Z10	X11	Y11	Z11	X12	Y12	Z12	X13	Y13	Z13	X14	Y14	Z14	X15	Y15	Z15	X16	Y16	Z16	X17	Y17	Z17	X18	Y18	Z18	X19	Y19	Z19	X20	Y20	Z20	X21	Y21	Z21	X22	Y22	Z22	X23	Y23	Z23	X24	Y24	Z24	X25	Y25	Z25	X26	Y26	Z26	X27	Y27	Z27	X28	Y28	Z28	X29	Y29	Z29	X30	Y30	Z30	X31	Y31	Z31	X32	Y32	Z32	X33	Y33	Z33	X34	Y34	Z34	X35	Y35	Z35	X36	Y36	Z36	X37	Y37	Z37	X38	Y38	Z38	X39	Y39	Z39	X40	Y40	Z40	X41	Y41	Z41	X42	Y42	Z42	X43	Y43	Z43	X44	Y44	Z44	X45	Y45	Z45	X46	Y46	Z46	X47	Y47	Z47	X48	Y48	Z48	X49	Y49	Z49	X50	Y50	Z50	X51	Y51	Z51	

249	1.0333	-116.04	1059.7	323.85	-210	1301.1	468.37	-231.52	1300.6	175.76	-209.79	1588	302.45	-157.34	902.03	432.56	-126.59	897.87	225	-359.63	932.98	348.86	-353.34	936.16	275.12	-246.85	767.78	514.15	-215.59	783.87	122.68	-270.51	936.01	479.23	-243.66	941.86	144.06	-383.81	890.87	301.16	-300.32	585.4	483.3	-268.18	496.42	443.09	-339.08	506.47	458.42	-233.89	576.3	465.59	-349.07	426.6	438.97	-359.42	423.7	294.98	-509.14	271.58	415.05	-477.74	167.96	391.21	-535.29	203.45	403.15	-449.34	229.21	411.56	-559.23	110.4	384.43	-551.12	130.45	303.89	-630.13	107.75	331.96	-623.5	75.62	302.03	-630.14	74.076	366.03	-471.67	36.648	395.37	-446.45	33.129	287.52	-393.35	54.142	338.72	-152.05	570.21	148.14	-49.198	533.46	162.48	-114.79	490.98	175.03	-95.819	612.93	136.77	-32.163	455.49	174.07	-37.707	454.65	317.85	-42.979	267.02	185.67	57.718	218.36	193.18	-12.463	200.65	202.32	20.116	283.29	177.51	67.131	106.21	209.96	85.485	115.9	290.26	32.216	54.559	248.78	49.378	38.681	284.86	48.693	27.303	224.22	202.43	82.599	188	214.29	117.02	291.05	261.38	152.44	240.57	-296.48	1365	330.67	-379.47	1114.5	337.69
250	1.0375	-109.78	1058.9	323.57	-203.97	1300.6	467.59	-225.18	1299.6	174.93	-204.1	1587.3	301.03	-151.29	901.14	432.57	-120.42	897.21	224.91	-353.55	932.2	348.81	-347.25	935.45	275	-241.38	766.93	514.05	-209.58	783.41	122.6	-264.43	935.21	479.14	-237.6	941.11	143.97	-377.75	890.12	301.04	-294.95	584.72	483.2	-262.64	495.58	443.44	-333.62	505.73	458.36	-228.45	575.52	465.89	-343.7	425.83	439.2	-353.36	422.64	295.14	-505.58	272.82	415.16	-475.63	168.71	391.71	-532.64	205	403.37	-446.43	229.68	411.95	-557.72	112.07	384.89	-549.22	132.07	304.39	-628.48	110.59	332.46	-622.36	78.555	302.33	-629.05	76.749	366.33	-471.42	36.594	395.42	-446.4	33.148	287.58	-393.27	53.896	338.65	-145.67	569.61	148.44	-42.802	533	162.87	-108.35	490.45	175.49	-89.527	612.34	136.96	-25.82	454.89	174.63	-31.018	454.49	318.08	-38.398	266.41	186.38	61.721	216.68	194.41	-8.71	199.71	203.14	24.903	282	178.62	69.733	104.96	211.1	87.851	114	291.59	33.967	54.3	249.62	50.683	37.804	285.61	50.007	26.999	224.86	204.65	79.815	189.57	216.55	113.37	292.88	264.38	148.31	242.82	-290.31	1364.3	329.68	-373.26	1113.8	337.2
251	1.0417	-103.47	1058.2	323.29	-197.94	1300.1	466.79	-218.8	1298.7	174.09	-198.39	1586.6	299.6	-145.18	900.29	432.58	-114.21	896.62	224.82	-347.41	931.49	348.78	-341.11	934.81	274.89	-235.85	766.12	513.93	-203.48	783.01	122.5	-258.28	934.46	479.06	-231.5	940.42	143.88	-371.64	889.43	300.93	-289.44	584.04	483.1	-256.93	494.77	443.81	-327.99	504.98	458.3	-222.86	574.77	466.19	-338.15	425.07	439.47	-347.16	421.57	295.35	-501.86	274.15	415.29	-473.4	169.54	392.26	-529.82	206.64	403.6	-443.39	230.21	412.38	-556.08	113.85	385.38	-547.14	133.77	304.93	-626.63	113.62	333	-621.07	81.687	302.65	-627.82	79.616	366.65	-471.14	36.559	395.47	-446.35	33.185	287.66	-393.18	53.65	338.57	-139.32	569.07	148.74	-36.44	532.55	163.28	-101.95	489.97	175.96	-83.235	611.8	137.16	-19.523	454.32	175.19	-24.409	454.35	318.3	-33.89	265.87	187.08	65.629	215.04	195.62	-5.0468	198.81	203.92	29.611	280.76	179.71	72.185	103.78	212.2	90.08	112.13	292.86	35.521	54.181	250.42	51.769	37.032	286.31	51.085	26.83	225.44	206.65	76.991	191.02	218.67	109.62	294.61	267.25	144.02	244.96	-284.14	1363.7	328.66	-367	1113.2	336.7
252	1.0458	-97.121	1057.6	323	-191.9	1299.8	465.97	-212.4	1297.8	173.23	-192.67	1586	298.16	-139.03	899.48	432.57	-107.97	896.1	224.74	-341.21	930.85	348.75	-334.93	934.23	274.79	-230.25	765.35	513.8	-197.28	782.68	122.39	-252.05	933.78	478.98	-225.36	939.81	143.78	-365.5	888.83	300.82	-283.79	583.38	482.98	-251.05	493.98	444.2	-322.19	504.24	458.27	-217.12	574.07	466.49	-332.42	424.31	439.79	-340.79	420.5	295.6	-497.96	275.54	415.46	-471.02	170.46	392.86	-526.84	208.38	403.85	-440.2	230.81	412.86	-554.28	115.73	385.9	-544.88	135.57	305.51	-624.59	116.82	333.57	-619.6	85.021	302.99	-626.43	82.682	366.99	-470.83	36.547	395.54	-446.31	33.246	287.74	-393.1	53.405	338.5	-132.98	568.6	149.04	-30.118	532.13	163.71	-95.618	489.54	176.44	-76.943	611.29	137.37	-13.279	453.79	175.76	-17.9	454.24	318.53	-29.433	265.4	187.76	69.469	213.46	196.79	-1.4434	197.99	204.67	34.262	279.58	180.79	74.518	102.66	213.24	92.202	110.31	294.08	36.918	54.202	251.16	52.676	36.372	286.94	51.971	26.793	225.96	208.45	74.153	192.37	220.66	105.81	296.23	270	139.63	246.98	-277.97	1363.1	327.6	-360.71	1112.6	336.17
253	1.05	-90.741	1057.1	322.7	-185.87	1299.5	465.15	-205.98	1297	172.36	-186.93	1585.5	296.71	-132.83	898.73	432.56	-101.71	895.63	224.67	-334.96	930.28	348.72	-328.71	933.72	274.69	-224.58	764.61	513.65	-190.98	782.42	122.26	-245.76	933.17	478.91	-219.16	939.28	143.67	-359.31	888.29	300.73	-278	582.73	482.86	-244.99	493.22	444.61	-316.21	503.49	458.26	-211.23	573.41	466.8	-326.48	423.56	440.16	-334.25	419.43	295.9	-493.88	277.02	415.66	-468.49	171.46	393.52	-523.68	210.2	404.14	-436.84	231.48	413.39	-552.32	117.72	386.46	-542.41	137.45	306.15	-622.31	120.21	334.17	-617.96	88.564	303.37	-624.86	85.955	367.37	-470.49	36.563	395.62	-446.26	33.338	287.84	-393.01	53.157	338.43	-126.67	568.19	149.34	-23.84	531.73	164.15	-89.349	489.16	176.91	-70.654	610.84	137.59	-7.0878	453.31	176.33	-11.511	454.15	318.75	-25.006	265	188.4	73.264	211.96	197.93	2.1255	197.25	205.37	38.875	278.49	181.84	76.759	101.63	214.22	94.238	108.57	295.24	38.191	54.355	251.84	53.44	35.828	287.51	52.706	26.883	226.43	210.1	71.324	193.6	222.54	101.99	297.73	272.64	135.17	248.87	-271.79	1362.6	326.53	-354.38	1112	335.63
254	1.0542	-84.33	1056.7	322.39	-179.83	1299.3	464.32	-199.54	1296.3	171.47	-181.17	1585	295.25	-126.59	898.02	432.52	-95.433	895.23	224.59	-328.66	929.78	348.69	-322.45	933.27	274.6	-218.83	763.91	513.49	-184.59	782.23	122.12	-239.4	932.62	478.85	-212.91	938.82	143.54	-353.08	887.83	300.63	-272.04	582.1	482.73	-238.74	492.48	445.05	-310.04	502.74	458.28	-205.17	572.8	467.12	-320.34	422.81	440.59	-327.54	418.34	296.26	-489.59	278.57	415.91	-465.78	172.55	394.24	-520.32	212.12	404.45	-433.3	232.21	413.99	-550.17	119.82	387.06	-539.72	139.43	306.84	-619.78	123.78	334.82	-616.1	92.32	303.78	-623.1	89.439	367.78	-470.11	36.614	395.72	-446.2	33.467	287.95	-392.91	52.906	338.37	-120.4	567.86	149.64	-17.608	531.36	164.61	-83.147	488.84	177.37	-64.368	610.44	137.83	-0.95024	452.89	176.89	-5.2601	454.07	318.97	-20.592	264.7	188.99	77.03	210.56	199.02	5.6798	196.6	206.02	43.466	277.48	182.85	78.927	100.69	215.13	96.206	106.92	296.32	39.365	54.629	252.46	54.092	35.401	288.03	53.325	27.089	226.83	211.6	68.527	194.71	224.35	98.178	299.11	275.2	130.69	250.61	-265.61	1362.2	325.43	-348.02	1111.6	335.06
